<?xml version="1.0" encoding="UTF-8"?>
<svg xmlns="http://www.w3.org/2000/svg" viewBox="0 0 800 600" width="800" height="600">
  <defs>
    <linearGradient id="robotGrad" x1="0%" y1="0%" x2="100%" y2="100%">
      <stop offset="0%" style="stop-color:#4361ee;stop-opacity:1" />
      <stop offset="100%" style="stop-color:#3a0ca3;stop-opacity:1" />
    </linearGradient>
    <linearGradient id="bodyGrad" x1="0%" y1="0%" x2="100%" y2="100%">
      <stop offset="0%" style="stop-color:#f8fafc;stop-opacity:1" />
      <stop offset="100%" style="stop-color:#e2e8f0;stop-opacity:1" />
    </linearGradient>
    <linearGradient id="eyeGrad" x1="0%" y1="0%" x2="100%" y2="100%">
      <stop offset="0%" style="stop-color:#4cc9f0;stop-opacity:1" />
      <stop offset="100%" style="stop-color:#4361ee;stop-opacity:1" />
    </linearGradient>
  </defs>
  
  <!-- Robot Head -->
  <rect x="300" y="150" width="200" height="180" rx="20" fill="url(#bodyGrad)" stroke="url(#robotGrad)" stroke-width="3"/>
  
  <!-- Robot Eyes -->
  <circle cx="350" cy="220" r="25" fill="url(#eyeGrad)"/>
  <circle cx="450" cy="220" r="25" fill="url(#eyeGrad)"/>
  <circle cx="350" cy="220" r="15" fill="#ffffff"/>
  <circle cx="450" cy="220" r="15" fill="#ffffff"/>
  <circle cx="350" cy="220" r="8" fill="#1f2937"/>
  <circle cx="450" cy="220" r="8" fill="#1f2937"/>
  
  <!-- Robot Mouth -->
  <rect x="370" y="270" width="60" height="20" rx="10" fill="url(#robotGrad)"/>
  <rect x="375" y="275" width="10" height="10" rx="2" fill="#ffffff"/>
  <rect x="390" y="275" width="10" height="10" rx="2" fill="#ffffff"/>
  <rect x="405" y="275" width="10" height="10" rx="2" fill="#ffffff"/>
  <rect x="420" y="275" width="10" height="10" rx="2" fill="#ffffff"/>
  
  <!-- Robot Antennas -->
  <line x1="350" y1="150" x2="350" y2="120" stroke="url(#robotGrad)" stroke-width="4"/>
  <line x1="450" y1="150" x2="450" y2="120" stroke="url(#robotGrad)" stroke-width="4"/>
  <circle cx="350" cy="120" r="8" fill="url(#eyeGrad)"/>
  <circle cx="450" cy="120" r="8" fill="url(#eyeGrad)"/>
  
  <!-- Robot Body -->
  <rect x="280" y="330" width="240" height="200" rx="15" fill="url(#bodyGrad)" stroke="url(#robotGrad)" stroke-width="3"/>
  
  <!-- Robot Chest Panel -->
  <rect x="320" y="370" width="160" height="120" rx="10" fill="url(#robotGrad)" opacity="0.1"/>
  <circle cx="400" cy="430" r="30" fill="url(#eyeGrad)" opacity="0.8"/>
  <circle cx="400" cy="430" r="20" fill="url(#robotGrad)"/>
  <circle cx="400" cy="430" r="10" fill="#ffffff"/>
  
  <!-- Robot Arms -->
  <rect x="220" y="350" width="60" height="120" rx="30" fill="url(#bodyGrad)" stroke="url(#robotGrad)" stroke-width="3"/>
  <rect x="520" y="350" width="60" height="120" rx="30" fill="url(#bodyGrad)" stroke="url(#robotGrad)" stroke-width="3"/>
  
  <!-- Robot Hands -->
  <circle cx="250" cy="490" r="25" fill="url(#bodyGrad)" stroke="url(#robotGrad)" stroke-width="3"/>
  <circle cx="550" cy="490" r="25" fill="url(#bodyGrad)" stroke="url(#robotGrad)" stroke-width="3"/>
  
  <!-- Robot Legs -->
  <rect x="320" y="530" width="50" height="60" rx="25" fill="url(#bodyGrad)" stroke="url(#robotGrad)" stroke-width="3"/>
  <rect x="430" y="530" width="50" height="60" rx="25" fill="url(#bodyGrad)" stroke="url(#robotGrad)" stroke-width="3"/>
  
  <!-- Digital Effects -->
  <g fill="none" stroke="#4cc9f0" stroke-width="2" opacity="0.6">
    <circle cx="400" cy="300" r="150" stroke-dasharray="5,5">
      <animateTransform attributeName="transform" type="rotate" values="0 400 300;360 400 300" dur="20s" repeatCount="indefinite"/>
    </circle>
    <circle cx="400" cy="300" r="180" stroke-dasharray="3,7">
      <animateTransform attributeName="transform" type="rotate" values="360 400 300;0 400 300" dur="15s" repeatCount="indefinite"/>
    </circle>
  </g>
  
  <!-- Floating Data Points -->
  <g fill="#4361ee" opacity="0.7">
    <circle cx="150" cy="200" r="4">
      <animate attributeName="cy" values="200;180;200" dur="3s" repeatCount="indefinite"/>
    </circle>
    <circle cx="650" cy="250" r="4">
      <animate attributeName="cy" values="250;230;250" dur="4s" repeatCount="indefinite"/>
    </circle>
    <circle cx="100" cy="400" r="4">
      <animate attributeName="cy" values="400;380;400" dur="3.5s" repeatCount="indefinite"/>
    </circle>
    <circle cx="700" cy="450" r="4">
      <animate attributeName="cy" values="450;430;450" dur="2.5s" repeatCount="indefinite"/>
    </circle>
  </g>
  
  <!-- Binary Code Background -->
  <g fill="#4361ee" opacity="0.1" font-family="monospace" font-size="12">
    <text x="50" y="100">01001001 01000001</text>
    <text x="600" y="150">11000001 10101010</text>
    <text x="50" y="550">01010101 11110000</text>
    <text x="600" y="580">10101010 01010101</text>
  </g>
</svg>
