<?xml version="1.0" encoding="UTF-8"?>
<svg xmlns="http://www.w3.org/2000/svg" width="600" height="400" viewBox="0 0 600 400">
  <rect width="600" height="400" fill="#f0f4f8"/>
  
  <!-- Mobile Phone Outline -->
  <rect x="200" y="50" width="200" height="300" rx="20" fill="#1f2937" stroke="#4361ee" stroke-width="2"/>
  <rect x="210" y="70" width="180" height="260" rx="5" fill="#ffffff"/>
  
  <!-- App Header -->
  <rect x="210" y="70" width="180" height="50" rx="5" fill="#4361ee"/>
  <circle cx="240" cy="95" r="15" fill="#ffffff"/>
  <rect x="265" y="85" width="100" height="10" rx="2" fill="#ffffff"/>
  <rect x="265" y="105" width="70" height="8" rx="2" fill="#ffffff" opacity="0.7"/>
  
  <!-- App Content -->
  <rect x="225" y="140" width="150" height="70" rx="8" fill="#f1f5f9"/>
  <rect x="225" y="220" width="150" height="40" rx="8" fill="#f1f5f9"/>
  <rect x="225" y="270" width="70" height="40" rx="8" fill="#f1f5f9"/>
  <rect x="305" y="270" width="70" height="40" rx="8" fill="#4361ee"/>
  
  <!-- Content Details -->
  <rect x="240" y="155" width="120" height="10" rx="2" fill="#4361ee"/>
  <rect x="240" y="175" width="90" height="8" rx="2" fill="#94a3b8"/>
  <rect x="240" y="190" width="100" height="8" rx="2" fill="#94a3b8"/>
  
  <rect x="240" y="235" width="120" height="10" rx="2" fill="#4361ee"/>
  
  <text x="340" y="295" font-family="Arial" font-size="14" font-weight="bold" text-anchor="middle" fill="#ffffff">Login</text>
  
  <!-- AI Icon -->
  <text x="300" y="350" font-family="Arial" font-size="24" font-weight="bold" text-anchor="middle" fill="#3a0ca3">App Personalizado</text>
</svg>
