<?xml version="1.0" encoding="UTF-8"?>
<svg xmlns="http://www.w3.org/2000/svg" width="600" height="400" viewBox="0 0 600 400">
  <rect width="600" height="400" fill="#f0f4f8"/>
  <rect x="50" y="50" width="500" height="300" rx="10" fill="#ffffff" stroke="#4361ee" stroke-width="2"/>
  
  <!-- Website Header -->
  <rect x="70" y="70" width="460" height="60" rx="5" fill="#f8fafc"/>
  <rect x="90" y="85" width="120" height="30" rx="5" fill="#4361ee"/>
  <circle cx="480" cy="100" r="15" fill="#4361ee"/>
  <circle cx="440" cy="100" r="15" fill="#4361ee"/>
  <circle cx="400" cy="100" r="15" fill="#4361ee"/>
  
  <!-- Website Content -->
  <rect x="90" y="150" width="200" height="160" rx="5" fill="#f1f5f9"/>
  <rect x="310" y="150" width="200" height="70" rx="5" fill="#f1f5f9"/>
  <rect x="310" y="240" width="200" height="70" rx="5" fill="#f1f5f9"/>
  
  <!-- Text Lines -->
  <rect x="110" y="170" width="160" height="10" rx="2" fill="#4361ee"/>
  <rect x="110" y="190" width="120" height="8" rx="2" fill="#94a3b8"/>
  <rect x="110" y="210" width="140" height="8" rx="2" fill="#94a3b8"/>
  <rect x="110" y="230" width="130" height="8" rx="2" fill="#94a3b8"/>
  <rect x="110" y="250" width="150" height="8" rx="2" fill="#94a3b8"/>
  
  <rect x="330" y="170" width="160" height="10" rx="2" fill="#4361ee"/>
  <rect x="330" y="190" width="120" height="8" rx="2" fill="#94a3b8"/>
  
  <rect x="330" y="260" width="160" height="10" rx="2" fill="#4361ee"/>
  <rect x="330" y="280" width="120" height="8" rx="2" fill="#94a3b8"/>
  
  <!-- AI Icon -->
  <text x="300" y="350" font-family="Arial" font-size="24" font-weight="bold" text-anchor="middle" fill="#3a0ca3">Site Inteligente</text>
</svg>
